# xmcd
#
# Track frame offsets: 
#        150
#        29254
#        50613
#        72868
#        103127
#        131808
#        154166
#        182349
#        207587
#
# Disc length: 3123 seconds
#
# Revision: 1
# Processed by: cddbd v1.5.2PL0 Copyright (c) Steve Scherf et al.
# Submitted via: ExactAudioCopy v0.99pb5
#
DISCID=800c3109
DTITLE=Stanley Turrentine - Music for Lovers
DYEAR=2006
DGENRE=Jazz
TTITLE0=Little Girl Blue
TTITLE1=Maybe September
TTITLE2=Never Let Me Go
TTITLE3=What the world needs now is love
TTITLE4=Make Someone Happy
TTITLE5=Journey into Melody
TTITLE6=Spring Can Really Hang You Up the Most
TTITLE7=Stella By Starlight
TTITLE8=My Ship
EXTD=
EXTT0=
EXTT1=
EXTT2=
EXTT3=
EXTT4=
EXTT5=
EXTT6=
EXTT7=
EXTT8=
PLAYORDER=
